<?xml version="1.0" encoding="utf-8"?>
<!-- Generator: Adobe Illustrator 25.0.0, SVG Export Plug-In . SVG Version: 6.00 Build 0)  -->
<svg version="1.1" id="Capa_1" xmlns="http://www.w3.org/2000/svg" xmlns:xlink="http://www.w3.org/1999/xlink" x="0px" y="0px"
	 viewBox="0 0 1000 1000" style="enable-background:new 0 0 1000 1000;" xml:space="preserve">
<style type="text/css">
	.st0{fill:#FFFFFF;}
</style>
<g>
	<g>
		<path class="st0" d="M311.5,850.1c-2.7,0-5.2-0.9-7.6-2.7c-1.7-1.5-3.1-3.3-4-5.4s-1.5-4.5-1.5-6.9c-0.1-22.1-0.4-46.7-0.9-73.9
			v-0.1L273,817.4c-2,4.6-5.5,7-10.3,7.3h-0.4c-3.4,0-6.3-1.3-8.6-4c-1.5-1.8-2.7-4-3.8-6.7c-3.9-9.3-10.4-27.5-19.6-54.5v78
			c-0.1,3-1.1,5.5-3.1,7.4c-2,1.9-4.4,3-7.3,3.1h-4c-2.9-0.1-5.3-1.1-7.3-3.1s-3-4.4-3.1-7.5V713.5c0-4.9,1.7-9.1,5.1-12.5
			c3.4-3.5,7.5-5.2,12.3-5.2h8.3c3.6,0,6.9,1,9.8,3c3,2,5.2,4.8,6.7,8.2c0.1,0.2,7.7,20.8,22.9,61.5l26.7-60.9
			c0.5-1.5,1.4-2.9,2.6-4.3c2-2,4-3.2,6.1-3.7c2-0.4,3.5-0.6,4.6-0.6l2-0.1c5.4,0,9.6,1.5,12.6,4.7c2.3,2.6,3.5,5.2,3.8,7.8
			c0.2,1.4,0.2,2.6,0.2,3.7c0,1,0,1.8-0.1,2.5c-0.1,0.1-0.1,0.4-0.1,1c-0.4,14.9-0.6,38.2-0.6,69.7c0,17,0.1,31.9,0.2,44.8
			c0,4.5-0.6,8-1.9,10.4c-1.3,2.5-2.8,4.1-4.6,5.1c-1.8,0.9-3.5,1.5-5,1.7L311.5,850.1L311.5,850.1z"/>
		<path class="st0" d="M389.9,877.4c-9.9,0-18.5-3.9-26-11.7c-1.6-1.9-2.5-3.9-2.5-6.1c0-0.4,0.1-1.4,0.3-3.1
			c0.2-1.6,1.6-3.3,4.1-4.9c1.5-0.9,3.1-1.3,4.8-1.3c0.4,0,1.2,0.1,2.4,0.2c1.2,0.2,2.5,1,4,2.6c2.9,3.1,6,5,9.4,5.8h0.9
			c1.5,0,2.9-0.6,4.2-1.8c3.7-3.8,6.4-11,8.1-21.8c1.6-9.5,2.5-21.2,2.5-34.8l-0.1-5.4c-3.6,9.2-7.2,16.4-10.8,21.7
			c-4.8,7.3-10.3,10.9-16.4,10.9h-1c-1.2,0.3-2.9,0.5-5.1,0.5c-1,0-2.7-0.1-5.1-0.2c-2.5-0.2-5.4-1.6-8.9-4.4
			c-5.6-5.5-9.3-12.5-11-20.9c-1.3-6-2-12.3-2-18.8c0-10.4,1.3-22,3.9-34.7c0.7-3.5,2.6-6.2,5.5-8.2c2.6-1.5,5.7-2.3,9.2-2.3h1.7
			c4.5,0.3,7.7,1.1,9.5,2.5c3.9,2.6,5.9,6.2,5.9,10.6c0,1.1-0.1,2.3-0.4,3.4c-2.7,11.8-4,23.5-4,35c0,6.7,0.5,12,1.6,15.9
			c2.6-2,5-5.4,7.2-10.2h0.1c3.6-8.2,7.7-19.6,12.5-34c2.9-9.2,5-14.8,6.1-16.8l0.1-0.1c0.5-0.7,0.8-1.1,0.9-1.2
			c0.1,0,0.2-0.1,0.2-0.3c0.1-0.2,0.2-0.3,0.4-0.5c2.2-2.2,4.9-3.3,8.1-3.3l10.8,0.4c3.7,0.2,6.4,1.2,8.1,3.2c1.7,2,2.6,4.2,2.7,6.5
			c1.1,10.8,1.6,23.4,1.6,37.8c0,3.8-0.1,9.6-0.3,17.4c-0.2,7.8-1.1,16.9-2.8,27.5c-1.6,10.6-4.3,19.3-8.1,26
			C414.2,870.6,403.5,876.9,389.9,877.4z"/>
		<path class="st0" d="M461,883.8c-1.6,0-3.3-0.3-5-0.9c-4.2-1.4-7-5.5-8.4-12.3c-1.5-8.8-2.3-26.2-2.3-52.1c0-34.2,0.9-58,2.7-71.3
			c0.6-5.8,2.8-10,6.7-12.5c1.3-1,3.1-1.5,5.4-1.5c0.6,0,1.4,0,2.2,0.1h0.9c3,0,5.7,0.9,8.1,2.7l0.4,0.1l0.1-0.1
			c5.7-2.6,11.5-3.9,17.2-3.9c1.7,0,4.9,0.3,9.6,0.9s10.2,3.5,16.7,8.7c9.9,8.5,15.3,20,16.3,34.6l0.1,3.1c0,8.1-1.5,16.2-4.5,24.3
			c-3,8.1-7.5,15.3-13.5,21.7c-3.9,4-8.1,7-12.7,9.2c-7.8,3.6-16.5,5.4-25.9,5.4h-0.6l-0.7,27.6c0,2-0.4,4.7-1.2,8
			c-1,3.5-3.8,6.2-8.6,8.1L461,883.8z M475.5,815.8c8.7,0,15.6-2.5,20.8-7.3c7.3-8.2,11-18,11-29.6c0-7.7-2.5-13.8-7.6-18.2
			c-3.5-2.7-6.8-4.1-9.9-4.2c-3,0-5.4,0.5-7.1,1.3c-3.3,1.5-5.4,3.2-6.5,4.9c-0.4,15-0.8,32.7-1.2,53.1L475.5,815.8L475.5,815.8z"/>
		<path class="st0" d="M583.2,845.9c-6.5,0-13.3-2-20.3-6s-12.2-9.7-15.4-17.1c-3.4-7.7-5.1-16.3-5.1-25.8c0-8.5,1.3-16.8,3.8-24.8
			c3.9-12.8,9.8-22.6,17.7-29.5c7.3-6.2,15.4-9.3,24.5-9.3h2.7c8.1,0.8,14.6,3.3,19.7,7.3c6,4.8,8.9,11.2,8.9,19.2
			c0,12.2-6.7,22.8-19.9,31.7c-3.3,2.2-7.3,4.2-11.8,6.1c-4.5,1.9-9,3.1-13.5,3.7v3.1c0,7.4,1.3,13.5,3.9,18.1
			c1.6,2.8,4,4.2,7.1,4.2c1.1,0,2.5-0.2,3.9-0.5c4.6-2.1,9.3-6.3,14.2-12.6c1.9-2.3,4.2-3.4,7.1-3.4c2,0,3.8,0.6,5.5,1.7
			c2.5,2,3.7,4.4,3.7,7.5c0,2-0.7,3.8-2,5.6c-2.7,3.4-5.8,6.7-9.2,9.8c-3.4,3.1-7.2,5.8-11.4,7.9C593,844.8,588.4,845.9,583.2,845.9
			z M577.5,782c7.3-2.2,13.5-5.9,18.7-11c3.5-3.6,5.3-7.2,5.3-10.9c0-2.2-0.6-3.8-1.8-4.9c-0.7-0.3-1.4-0.5-2.2-0.5
			c-0.7,0-1.8,0.2-3.2,0.5c-1.4,0.3-3.5,2-6,4.9C583.5,765.8,579.9,773.1,577.5,782z"/>
		<path class="st0" d="M674,847.3c-8.9,0-16.1-3.1-21.8-9.2c-3.5-3.8-5.8-8.2-6.7-13.2c-2.5-9.4-4-20.3-4.3-32.9
			c-0.1-3.9-0.1-7.8-0.1-11.6c0-8.2,0.2-16.2,0.7-23.8l-1.2-0.1c-2.5-0.2-4.6-1.1-6.2-2.8c-1.6-1.7-2.4-3.7-2.4-6
			c0-2.9,0.9-5.3,2.8-7.1c1.7-1.5,3.8-2.3,6.4-2.3l1.8,0.1c0.1-0.2,0.2-2,0.4-5.2c0.2-3.2,0.6-6,1.2-8.5c1.5-6.3,6-9.4,13.2-9.4
			c7.2,0,12.3,1.7,15.5,5.1c3.1,3.2,4.7,7,4.7,11.4c-0.1,2-0.3,4.7-0.6,7.8l15.8,0.6c2.5,0.2,4.5,1.1,6,2.8c1.6,1.7,2.4,3.8,2.4,6.1
			c0,2.9-0.9,5.3-2.8,7c-1.6,1.5-3.6,2.3-6,2.3l-17.5-0.6c-1.8,15.3-2.7,28.2-2.7,38.8c0,4.6,0.3,9.9,0.8,16
			c0.5,6.1,2.2,10.5,5,13.1c0.4,0.3,0.9,0.5,1.6,0.5c1,0,2.2-0.2,3.5-0.6l0.2,0.2c2.5-1.6,4.9-4,7.5-7.1c1.9-2.4,4.2-3.5,7.1-3.5
			c1.8,0,3.4,0.5,4.9,1.5c3,1.8,4.5,4.4,4.5,7.7c0,1.9-0.6,3.6-1.8,5.3c-5.1,6.4-10.4,10.9-16,13.6C684.2,846,678.9,847.3,674,847.3
			z"/>
		<path class="st0" d="M752.5,845.5c-4.6,0-8.9-0.7-13.1-2.2c-11.4-4.7-17.7-13.4-18.8-26.2v-0.5c0-3.1,1.1-5.7,3.4-7.7
			c1.9-1.7,4.2-2.6,6.8-2.6l1.8,0.1c5.2,1.3,8.2,4.4,8.8,9.4c0.5,6.3,4.2,9.4,11.2,9.4c2.7,0,5.2-0.7,7.6-2.1
			c1.3-0.8,2.1-1.5,2.5-2.1s0.5-1.2,0.5-1.9c0-1.5-1-3.4-3-5.7c-2-2.2-5.6-5.3-10.8-9.1l-2.9-2.2c-6.1-4.4-11.6-9.5-16.5-15.4
			c-4.8-5.9-7.7-12.8-8.5-20.7l-0.1-2c0-6.4,1.8-12.2,5.5-17.7s9-9.5,16.1-12.2c3.8-1.3,7.6-2,11.2-2c2.2,0,5.3,0.5,9.2,1.3
			c4,0.9,8,3.6,12,8.1c4.1,4.2,6.1,8,6.1,11.4c0,2-0.7,3.8-2,5.5c-2,2.8-4.9,4.2-8.7,4.2c-4.1,0-7.1-1.7-9.2-5c-0.5-1-1.1-1.9-2-2.7
			c-0.5-0.2-1-0.2-1.6-0.2c-2.4,0-4.2,0.5-5.4,1.6c-0.9,1.1-1.3,2.4-1.3,3.9c0,1.1,0.2,2,0.7,2.9c1.9,3.1,4.2,6,7,8.8
			c2.8,2.8,6.8,6.5,12.1,11.2c3.5,2.9,7.2,6.7,11.1,11.2c3.9,4.5,6.5,9.7,7.9,15.6c0.2,1.3,0.4,2.7,0.4,4c0,4.7-1.7,9.8-5,15.3
			c-2.7,3.8-6.2,7-10.4,9.7c-4.6,2.7-10,4.7-16.1,5.9v-0.1C757,845.3,754.8,845.5,752.5,845.5z"/>
	</g>
	<g>
		<path class="st0" d="M385.8,84.1c0,0,25.5-9.8,28.3-3.1s8,44.3-53.2,72.3s-100.1,40-125.5,125.8c0,0-19.7,70.1,30.1,155
			c0,0,8.6,14.1,23.1,11.7c14.5-2.5,26.8-13.8,14.8-44.6s-23.4-40.6-24.3-89.8c-0.9-49.2,27.4-73.2,51.4-58.4
			c24,14.8,22.1,36.6,22.5,47.7s0.2,110.4,62.7,157.5s50.5,107.1,23.8,136.6c-26.8,29.5-97.8,22.2-146.7,0s-252.2-188.2-95-419
			c0,0,32.3-52.6,97.5-68.3S385.8,84.1,385.8,84.1z"/>
		<path class="st0" d="M614.3,84.1c0,0-25.5-9.8-28.3-3.1s-8,44.3,53.2,72.3s100.1,40,125.5,125.8c0,0,19.7,70.1-30.2,155
			c0,0-8.6,14.1-23.1,11.7s-26.8-13.8-14.8-44.6s23.4-40.6,24.3-89.8s-27.4-73.2-51.4-58.4s-22.2,36.6-22.5,47.7
			s-0.2,110.4-62.7,157.5S534,565.2,560.7,594.7c26.8,29.5,97.8,22.2,146.7,0s252.2-188.3,95.1-419c0,0-32.3-52.6-97.5-68.3
			S614.3,84.1,614.3,84.1z"/>
		<circle class="st0" cx="413.5" cy="283.7" r="26.8"/>
		<circle class="st0" cx="583.3" cy="283.7" r="26.8"/>
		<path class="st0" d="M538.1,430.8c-2.7,16.9-23.9,31-38.1,31c-13.4,0-35.5-14.1-38.1-31c-2.6-17,3.4-31,38.1-31
			C533.4,399.8,540.8,414.1,538.1,430.8z"/>
	</g>
</g>
</svg>
